# xmcd CD database file
#
# Track frame offsets:
#	150
#	12172
#	21532
#	35889
#	46256
#	59441
#	74946
#	89964
#	107449
#	120869
#	135421
#	144961
#	164389
#	174579
#	197696
#	210544
#	221982
#	242047
#	252927
#	263669
#
# Disc length: 3685 seconds
#
# Revision: 1
# Processed by: cddbd v1.5.2PL0 Copyright (c) Steve Scherf et al.
# Submitted via: CDex 1.86
#
DISCID=2e0e6314
DTITLE=J.J.Cale - After Midnight
DYEAR=2003
DGENRE=Blues
TTITLE0=Call me the breeze
TTITLE1=Devil in disguise
TTITLE2=Don't wait
TTITLE3=Cajun Moon
TTITLE4=Cocaine
TTITLE5=Magnolia
TTITLE6=Hey baby
TTITLE7=Mama don't
TTITLE8=Lies
TTITLE9=I'll make love to you anytime
TTITLE10=Rock and roll records
TTITLE11=Money talks
TTITLE12=Don't cry sister
TTITLE13=Sensitive kind
TTITLE14=City girls
TTITLE15=Crazy mama
TTITLE16=Midnight in Memphis
TTITLE17=After midnight
TTITLE18=Carry on
TTITLE19=Thirteen days
EXTD=YEAR: 2003
EXTT0=
EXTT1=
EXTT2=
EXTT3=
EXTT4=
EXTT5=
EXTT6=
EXTT7=
EXTT8=
EXTT9=
EXTT10=
EXTT11=
EXTT12=
EXTT13=
EXTT14=
EXTT15=
EXTT16=
EXTT17=
EXTT18=
EXTT19=
PLAYORDER=
